<?xml version="1.0" encoding="UTF-8"?>
<svg id="Capa_2" data-name="Capa 2" xmlns="http://www.w3.org/2000/svg" viewBox="0 0 183.14 308.43">
  <defs>
    <style>
      .cls-1 {
        fill: #e5b553;
      }

      .cls-2 {
        stroke: #bc8d2f;
      }

      .cls-2, .cls-3 {
        fill: none;
        stroke-miterlimit: 10;
      }

      .cls-3 {
        stroke: #b3511a;
        stroke-width: .38px;
      }
    </style>
  </defs>
  <g id="Capa_1-2" data-name="Capa 1">
    <g>
      <g>
        <path class="cls-2" d="M183.05,307.94S108.29,294.55,30.91,50.34"/>
        <g>
          <path class="cls-1" d="M7.04,71.39c32.22,5.61,42.57,29.84,42.57,29.84,0,0-26,4.25-48.01-19.94-3.86-4.24-.21-10.89,5.44-9.9Z"/>
          <path class="cls-1" d="M66.49,52.06c-22.76,23.48-16.88,49.17-16.88,49.17,0,0,23.53-11.85,27.11-44.36.63-5.7-6.23-8.93-10.22-4.81Z"/>
        </g>
        <g>
          <path class="cls-1" d="M26.89,133.64c32.62,2.34,45.35,25.41,45.35,25.41,0,0-25.44,6.85-49.77-15.01-4.27-3.83-1.3-10.81,4.42-10.4Z"/>
          <path class="cls-1" d="M84.1,108.44c-20.29,25.65-11.86,50.61-11.86,50.61,0,0,22.22-14.15,22.51-46.86.05-5.73-7.1-8.25-10.66-3.76Z"/>
        </g>
        <g>
          <path class="cls-1" d="M47.71,186.08c32.7-.08,47.11,21.98,47.11,21.98,0,0-24.87,8.71-50.74-11.29-4.54-3.51-2.1-10.68,3.64-10.7Z"/>
          <path class="cls-1" d="M102.9,156.71c-18.33,27.08-8.08,51.35-8.08,51.35,0,0,21.12-15.76,18.98-48.39-.37-5.72-7.69-7.71-10.9-2.96Z"/>
        </g>
        <path class="cls-1" d="M24.87,2.73c17.98,27.32,7.41,51.45,7.41,51.45,0,0-20.91-16.03-18.35-48.64.45-5.72,7.79-7.61,10.94-2.82Z"/>
      </g>
      <line class="cls-3" x1="65.86" y1="66.52" x2="49.61" y2="101.23"/>
      <line class="cls-3" x1="49.61" y1="101.23" x2="15.83" y2="82.95"/>
      <line class="cls-3" x1="32.28" y1="54.18" x2="22.74" y2="19.43"/>
      <line class="cls-3" x1="72.24" y1="159.05" x2="35.95" y2="144.21"/>
      <line class="cls-3" x1="72.24" y1="159.05" x2="81.58" y2="129.22"/>
      <line class="cls-3" x1="94.82" y1="208.06" x2="105.3" y2="177.98"/>
      <line class="cls-3" x1="94.82" y1="208.06" x2="59.74" y2="196.1"/>
    </g>
  </g>
</svg>