<?xml version="1.0" encoding="UTF-8"?>
<svg id="Capa_2" data-name="Capa 2" xmlns="http://www.w3.org/2000/svg" viewBox="0 0 183.14 308.43">
  <defs>
    <style>
      .cls-1 {
        fill: #e5b553;
      }

      .cls-2 {
        stroke: #bc8d2f;
      }

      .cls-2, .cls-3 {
        fill: none;
        stroke-miterlimit: 10;
      }

      .cls-3 {
        stroke: #b3511a;
        stroke-width: .38px;
      }
    </style>
  </defs>
  <g id="Capa_1-2" data-name="Capa 1">
    <g>
      <g>
        <path class="cls-2" d="M.09,307.94s74.76-13.39,152.14-257.61"/>
        <g>
          <path class="cls-1" d="M176.1,71.39c-32.22,5.61-42.57,29.84-42.57,29.84,0,0,26,4.25,48.01-19.94,3.86-4.24.21-10.89-5.44-9.9Z"/>
          <path class="cls-1" d="M116.65,52.06c22.76,23.48,16.88,49.17,16.88,49.17,0,0-23.53-11.85-27.11-44.36-.63-5.7,6.23-8.93,10.22-4.81Z"/>
        </g>
        <g>
          <path class="cls-1" d="M156.24,133.64c-32.62,2.34-45.35,25.41-45.35,25.41,0,0,25.44,6.85,49.77-15.01,4.27-3.83,1.3-10.81-4.42-10.4Z"/>
          <path class="cls-1" d="M99.04,108.44c20.29,25.65,11.86,50.61,11.86,50.61,0,0-22.22-14.15-22.51-46.86-.05-5.73,7.1-8.25,10.66-3.76Z"/>
        </g>
        <g>
          <path class="cls-1" d="M135.42,186.08c-32.7-.08-47.11,21.98-47.11,21.98,0,0,24.87,8.71,50.74-11.29,4.54-3.51,2.1-10.68-3.64-10.7Z"/>
          <path class="cls-1" d="M80.24,156.71c18.33,27.08,8.08,51.35,8.08,51.35,0,0-21.12-15.76-18.98-48.39.37-5.72,7.69-7.71,10.9-2.96Z"/>
        </g>
        <path class="cls-1" d="M158.26,2.73c-17.98,27.32-7.41,51.45-7.41,51.45,0,0,20.91-16.03,18.35-48.64-.45-5.72-7.79-7.61-10.94-2.82Z"/>
      </g>
      <line class="cls-3" x1="117.28" y1="66.52" x2="133.53" y2="101.23"/>
      <line class="cls-3" x1="133.53" y1="101.23" x2="167.31" y2="82.95"/>
      <line class="cls-3" x1="150.85" y1="54.18" x2="160.39" y2="19.43"/>
      <line class="cls-3" x1="110.89" y1="159.05" x2="147.19" y2="144.21"/>
      <line class="cls-3" x1="110.89" y1="159.05" x2="101.56" y2="129.22"/>
      <line class="cls-3" x1="88.32" y1="208.06" x2="77.84" y2="177.98"/>
      <line class="cls-3" x1="88.32" y1="208.06" x2="123.39" y2="196.1"/>
    </g>
  </g>
</svg>